<svg id="Layer_1" data-name="Layer 1" xmlns="http://www.w3.org/2000/svg" viewBox="0 0 30 30" height="30px" width="30px">
    <defs>
        <style>
        .cls-1 {
            fill: #335888;
        }
        </style>
    </defs>
    <title>Carepet</title>
    <path class="cls-1" d="M8.11,11.67l0,0a1.7,1.7,0,0,0,1.25.59h.08a2.11,2.11,0,0,0,1-.28l0,0,0,0a3.28,3.28,0,0,0,.72-.6h0c.05-.06.11-.13.89-1.24a4,4,0,0,1,.46-.15,3.48,3.48,0,0,0,.9.1H14c1.05-.09,1.51-.12,1.71-.12H16a6.78,6.78,0,0,1,.76,0,8.61,8.61,0,0,0,.89.07h.14a5.33,5.33,0,0,0,.73-.11h.06a2.87,2.87,0,0,0,1.33-.83,7,7,0,0,1,.78-.73c.3-.17.58-.32.83-.45l0,0,0,0,.25-.14.05,0,.05,0a2.48,2.48,0,0,0,1.12-2.12V5.47l-.16-1.78c0-1.58-.53-2.38-1.55-2.38h0a1.59,1.59,0,0,0-1.07.44A17.83,17.83,0,0,1,18,3.67a6.42,6.42,0,0,1-1.29.38l-1.18.16c-.82.1-1.59.16-2.26.18H13.2A2.18,2.18,0,0,0,11.93,5c-.71.63-1.49,1.25-2.29,1.83l-.23.16-.13.25L8.11,9.44a1.84,1.84,0,0,0,0,2.19ZM9.16,10l1.19-2.26q1.26-.92,2.39-1.91a1,1,0,0,1,.58-.25q1.06,0,2.36-.19l1.24-.16a7.41,7.41,0,0,0,1.63-.49h0a18.13,18.13,0,0,0,2.54-2.1.44.44,0,0,1,.27-.14q.35,0,.35,1.24l.17,1.83a1.28,1.28,0,0,1-.62,1.11L21,6.82q-.47.23-1,.53a8.26,8.26,0,0,0-1,.92,1.68,1.68,0,0,1-.78.49,4.35,4.35,0,0,1-.56.08h0l-.75-.06A7.94,7.94,0,0,0,16,8.72H15.7l-.7,0a.59.59,0,0,0-.09-.2c-.26-.35-.31-.59-.28-.69a.35.35,0,0,1,.19-.16c.32-.05,2.25-.22,3.55-.33a.6.6,0,0,0-.1-1.2,34,34,0,0,0-3.81.37,1.53,1.53,0,0,0-1,.94,1.71,1.71,0,0,0,.2,1.35h-.15a1.91,1.91,0,0,1-.71-.1l-.12,0a4,4,0,0,0-1.32.41q-.93,1.32-1,1.42a2.07,2.07,0,0,1-.46.38,1,1,0,0,1-.43.14H9.4A.55.55,0,0,1,9,10.88Q8.81,10.63,9.16,10Z" />
    <path class="cls-1" d="M25.64,16.64a1.62,1.62,0,0,0-1-.62h-.13c-2.95.07-3.3-.53-3.32-.59a5.1,5.1,0,0,0-3.26-3.15,6.05,6.05,0,0,0-4.36.1c-2.37.87-3.45,3.4-3.82,4.51-.66-.8-1.5-1.71-1.74-2a.6.6,0,0,0-1,.17,10.25,10.25,0,0,0-1,4.05,6.42,6.42,0,0,0-.33,5.64A19,19,0,0,1,5,27.16a.6.6,0,1,0,1.1.48,22,22,0,0,0,.8-2.79.6.6,0,0,0,0-.38,5.19,5.19,0,0,1,.28-4.88A.6.6,0,0,0,7.26,19a6.27,6.27,0,0,1,.54-2.61,17,17,0,0,1,1.67,2,.6.6,0,0,0,.58.34,4.81,4.81,0,0,1,2.58.47,5.51,5.51,0,0,1,1.07,1.38,5,5,0,0,0,.9,1.19,4.5,4.5,0,0,0,1.33.61c-.07.56-.33,1.49-1.17,1.63s-1.43.18-2,.22a4.65,4.65,0,0,0-1.59.28c-.78.37-1,1.88-1,2.75a.6.6,0,0,0,.57.63.59.59,0,0,0,.63-.57,4.68,4.68,0,0,1,.37-1.75,5,5,0,0,1,1.13-.16c.55,0,1.23-.09,2.06-.24C16.75,25,17.18,23,17.17,22a.6.6,0,0,0-.44-.57,5.57,5.57,0,0,1-1.35-.51,4.37,4.37,0,0,1-.65-.9,6.47,6.47,0,0,0-1.33-1.68,4.74,4.74,0,0,0-2.63-.73.58.58,0,0,0,.07-.13c.22-.75,1.09-3.24,3.17-4a4.92,4.92,0,0,1,3.61-.08,4,4,0,0,1,2.49,2.47c.42,1,1.8,1.37,4.38,1.32a.48.48,0,0,1,.23.18.33.33,0,0,1,.09.27,4.79,4.79,0,0,1-2.23,4,8.09,8.09,0,0,1-3.44,1.23,1.74,1.74,0,0,0-1,.5,1.94,1.94,0,0,0-.32.4,4.77,4.77,0,0,0-.25.61c0,.06-.05.11-.81,2.8a.6.6,0,0,0,.41.74l.16,0a.6.6,0,0,0,.58-.44c.62-2.17.75-2.6.77-2.66l.18-.46a.74.74,0,0,1,.12-.15.55.55,0,0,1,.31-.17,9.26,9.26,0,0,0,3.94-1.42A6,6,0,0,0,26,17.75,1.49,1.49,0,0,0,25.64,16.64Z" />
    <path class="cls-1" d="M16.51,18.25a3.29,3.29,0,0,1-.95-.54,2.86,2.86,0,0,1-1-1.75.6.6,0,1,0-1.18.2,4.07,4.07,0,0,0,1.37,2.47,4.56,4.56,0,0,0,1.67.87h.18a1.21,1.21,0,0,0,.27,0,.82.82,0,0,0,.37-.22l.06-.07a5.17,5.17,0,0,0,.77-2.65,12.19,12.19,0,0,0,0-2.14.6.6,0,1,0-1.19.12,11,11,0,0,1,0,1.93A4.83,4.83,0,0,1,16.51,18.25Z" />
</svg>
