<svg id="concerns" data-name="Layer 1" xmlns="http://www.w3.org/2000/svg" viewBox="0 0 22 22" height="22" width="22">
    <g>
        <path fill="#898989" d="M5.25,2.8c-.4.07-.67.34-.86.88A11,11,0,0,0,4.6,8.43c.62,2.36,1.89,3.74,3.9,3.79l0,1.18c-2.62-.07-4.26-1.86-5-4.67a11.84,11.84,0,0,1-.19-5.44A2.29,2.29,0,0,1,5,1.64,1.18,1.18,0,1,1,5.25,2.8Z" transform="translate(-3.04 -0.85)" />
        <path fill="#898989" d="M11.34,2.8c.4.07.67.34.86.88A11,11,0,0,1,12,8.43c-.62,2.36-1.89,3.74-3.9,3.79l0,1.18c2.62-.07,4.26-1.86,5-4.67a11.84,11.84,0,0,0,.19-5.44,2.29,2.29,0,0,0-1.76-1.65,1.18,1.18,0,1,0-.22,1.16Z" transform="translate(-3.04 -0.85)" />
        <path fill="#898989" d="M15.75,16.71a2.95,2.95,0,1,1,2.95-2.95A2.95,2.95,0,0,1,15.75,16.71Zm0-1.18a1.77,1.77,0,1,1,1.77-1.77A1.77,1.77,0,0,1,15.75,15.53ZM7.51,13l1.18,0c-.09,5.28,1,7.72,3.18,7.66a3,3,0,0,0,2.91-2.26,7.16,7.16,0,0,0,.4-2.45l1.18,0a8.19,8.19,0,0,1-.47,2.81,4.15,4.15,0,0,1-4,3C8.82,21.94,7.41,18.87,7.51,13Z" transform="translate(-3.04 -0.85)" />
        <path fill="#fff" d="M17.12,12.37a1.89,1.89,0,1,1-2.67,0,1.89,1.89,0,0,1,2.67,0" transform="translate(-3.04 -0.85)" />
        <path fill="#898989" d="M16.5,13a1,1,0,1,1-1.41,0,1,1,0,0,1,1.41,0" transform="translate(-3.04 -0.85)" />
    </g>
</svg>
