<svg xmlns="http://www.w3.org/2000/svg" viewBox="0 0 16 16">
    <circle cx="8" cy="8" r="7.5" style="fill:#fff"/>
    <path d="M8.07.84a7,7,0,1,1-7,7,7,7,0,0,1,7-7m0-1a8,8,0,1,0,8,8,8,8,0,0,0-8-8Z" transform="translate(-0.07 0.16)" style="fill:#666"/>
    <path d="M8.89,11.19q0,.54,1,.54v.68H6.21v-.68q1,0,1-.54V7.54q0-.55-1-.55V6.3H8.89ZM9,4.29A1,1,0,0,1,8.74,5a1,1,0,0,1-1.13.22,1.07,1.07,0,0,1-.55-.55,1,1,0,0,1,.22-1.13A1,1,0,0,1,8,3.27a1,1,0,0,1,1,1Z" transform="translate(-0.07 0.16)" style="fill:#666"/>
</svg>