<svg id="Layer_1" data-name="Layer 1" xmlns="http://www.w3.org/2000/svg" viewBox="0 0 27 24.48"><defs><style>.cls-1{fill:none;}.cls-1,.cls-2{stroke:#386da6;stroke-linecap:round;stroke-linejoin:round;}.cls-2{fill:#386da6;}</style></defs><title>ins-outs</title><path id="path-1" class="cls-1" d="M25.73,10.38V3H4.36v9" transform="translate(-1.5 -2.5)"/><path id="path-2" class="cls-2" d="M4.36,16.48l2.36,2.41H2Z" transform="translate(-1.5 -2.5)"/><path id="path-2-2" data-name="path-2" class="cls-2" d="M25.64,12.86,28,10.45H23.27Z" transform="translate(-1.5 -2.5)"/><path id="path-1-2" data-name="path-1" class="cls-1" d="M25.73,18.1v8.38H4.36v-10" transform="translate(-1.5 -2.5)"/><path class="cls-1" d="M15,20a3.73,3.73,0,0,0,3.69-3.77q0-2.08-3.51-7.19-3.87,5.11-3.87,7.19A3.73,3.73,0,0,0,15,20Z" transform="translate(-1.5 -2.5)"/><path class="cls-1" d="M16.68,15.26a2,2,0,0,1-1.29,2.82" transform="translate(-1.5 -2.5)"/></svg>