<?xml version="1.0" encoding="utf-8"?>
<svg version="1.1" id="Layer_1" xmlns="http://www.w3.org/2000/svg" xmlns:xlink="http://www.w3.org/1999/xlink" x="0px" y="0px"
	 viewBox="0 0 30 30" style="enable-background:new 0 0 30 30;" xml:space="preserve">
<style type="text/css">
	.st0{fill:#386DA6;}
</style>
<path class="st0" d="M6,25v2h18v-2H6z M6,24h18c0.6,0,1,0.4,1,1v2c0,0.6-0.4,1-1,1H6c-0.6,0-1-0.4-1-1v-2C5,24.4,5.4,24,6,24z"/>
<path class="st0" d="M12.4,24.5l3.9-5.2c0.5-0.7,1.4-0.8,2.1-0.3c0.1,0.1,0.2,0.2,0.3,0.3l3.8,5c0.2,0.2,0.5,0.3,0.7,0.1
	c0.2-0.2,0.3-0.5,0.1-0.7l-3.8-5c-0.1-0.2-0.3-0.3-0.5-0.5c-1.1-0.8-2.7-0.6-3.5,0.5l-3.9,5.2c-0.2,0.2-0.1,0.5,0.1,0.7
	C11.9,24.7,12.2,24.7,12.4,24.5z"/>
<path class="st0" d="M18.2,19.7c0.4,0.4,0.4,1,0,1.4c-0.4,0.4-1,0.4-1.4,0c-0.4-0.4-0.4-1,0-1.4C17.2,19.3,17.8,19.3,18.2,19.7"/>
<path class="st0" d="M17.2,17.7H6.9c-0.8,0-1.4,0.6-1.4,1.4c0,0.8,0.6,1.4,1.4,1.4H15c0.3,0,0.5-0.2,0.5-0.5s-0.2-0.5-0.5-0.5H6.9
	c-0.2,0-0.4-0.2-0.4-0.4s0.2-0.4,0.4-0.4h10.3c0.3,0,0.5-0.2,0.5-0.5S17.5,17.7,17.2,17.7z"/>
<path class="st0" d="M9.8,5v9h3.5V5H9.8z M9.8,4h3.5c0.6,0,1,0.4,1,1v9c0,0.6-0.4,1-1,1H9.8c-0.6,0-1-0.4-1-1V5C8.8,4.4,9.2,4,9.8,4
	z"/>
<path class="st0" d="M11,3v1h1V3H11z M11,2h1c0.6,0,1,0.4,1,1v1c0,0.6-0.4,1-1,1h-1c-0.6,0-1-0.4-1-1V3C10,2.4,10.4,2,11,2z"/>
<path class="st0" d="M10.8,16l1.5,0v-1h-1.5C10.8,15,10.8,16,10.8,16z M12.3,14c0.6,0,1,0.4,1,1v1c0,0.5-0.4,1-1,1l-1.5,0
	c-0.6,0-1-0.4-1-1c0,0,0,0,0,0v-1c0-0.6,0.4-1,1-1C10.8,14,12.3,14,12.3,14z"/>
<path class="st0" d="M14,5.7c4.5-0.3,7.6,1.1,9.4,4.2c2.3,3.9,0.5,8.9-2.7,10.7l0.5,0.9c3.6-2.1,5.6-7.7,3.1-12.1
	c-2-3.5-5.5-5-10.3-4.7L14,5.7L14,5.7z"/>
<path class="st0" d="M14.1,8.1c3.1-0.5,5.4,0.4,7,2.7c1.9,2.6,0.2,6.1-2.2,7.8l0.6,0.8c2.7-2,4.7-6,2.4-9.2c-1.9-2.6-4.6-3.6-8-3.1
	C14,7.1,14.1,8.1,14.1,8.1z"/>
</svg>
