<svg xmlns="http://www.w3.org/2000/svg" viewBox="0 0 15 15">
    <g>
        <path fill="#fff" stroke="#fff" stroke-miterlimit="15" d="M4.93,1.76a2.13,2.13,0,0,0-2.1-.58A2.2,2.2,0,0,0,1.3,2.75a2.27,2.27,0,0,0,.56,2.15l.21.21L5.13,2ZM2.1,4.25a1.66,1.66,0,0,1,.19-2.07,1.56,1.56,0,0,1,2-.2Z" transform="translate(-0.72 -0.6)" />
        <path fill="none" stroke="#fff" stroke-miterlimit="15" d="M12.18,4.72a6.07,6.07,0,0,1,0,8.3,5.42,5.42,0,0,1-7.92,0,6.07,6.07,0,0,1,0-8.3,5.42,5.42,0,0,1,7.92,0" transform="translate(-0.72 -0.6)" />
        <path fill="#fff" stroke="#fff" stroke-miterlimit="15" d="M14.59,1.76a2.13,2.13,0,0,0-3.07,0L11.31,2l3.07,3.15.21-.21A2.27,2.27,0,0,0,14.59,1.76Zm-.24,2.5L12.16,2a1.56,1.56,0,0,1,2,.21,1.66,1.66,0,0,1,.19,2.06Z" transform="translate(-0.72 -0.6)" />
        <path fill="none" stroke="#fff" stroke-miterlimit="15" d="M8.51,5.83V9.38l-3-.68" transform="translate(-0.72 -0.6)" />
        <path fill="none" stroke="#fff" stroke-miterlimit="15" d="M11.85,13.35l1.47,1.74" transform="translate(-0.72 -0.6)" />
        <path fill="none" stroke="#fff" stroke-miterlimit="15" d="M2.62,15.1l1.64-1.69" transform="translate(-0.72 -0.6)" />
    </g>
</svg>
