<svg id="Layer_1" data-name="Layer 1" xmlns="http://www.w3.org/2000/svg" viewBox="0 0 30 30" height="30px" width="30px">
    <defs>
        <style>
        .cls-1 {
            fill: #335888;
        }
        </style>
    </defs>
    <title>Phone</title>
    <path class="cls-1" d="M27.58,5.8S24.83,2,23.27,2h0c-4.42.14-9.62,4.44-13.21,8S2.14,18.81,2,23.25c0,1.54,3.76,4.3,3.8,4.33A2.24,2.24,0,0,0,7.07,28h.16a1.52,1.52,0,0,0,1.13-.6c.28-.4,3.17-4.75,3.5-5.28A2.12,2.12,0,0,0,11.73,20c-.22-.42-1-1.72-1.31-2.33a31,31,0,0,1,3.41-3.88,31,31,0,0,1,3.88-3.41c.61.35,1.91,1.09,2.33,1.31a2.1,2.1,0,0,0,2.07.13c.49-.31,4.86-3.19,5.28-3.5A1.85,1.85,0,0,0,27.58,5.8Zm-.9,1.57c-.4.29-4.76,3.16-5.22,3.46a1.1,1.1,0,0,1-.84-.18C20.08,10.37,18,9.19,18,9.18L17.69,9l-.31.18A26,26,0,0,0,13,13a26.12,26.12,0,0,0-3.79,4.41L9,17.69l.18.31s1.19,2.09,1.47,2.62a1.12,1.12,0,0,1,.17.85c-.32.52-3.23,4.89-3.46,5.22,0,.07-.4.21-.86-.11-1.2-.84-3.23-2.75-3.28-3.31.13-4,4.24-9,7.67-12.38s8.36-7.54,12.39-7.67c.55,0,2.46,2.08,3.3,3.28C26.9,7,26.75,7.32,26.68,7.37Z" />
</svg>
