<svg xmlns="http://www.w3.org/2000/svg" viewBox="0 0 30 30">
  <g>
    <path d="M10.51,29a3.22,3.22,0,0,1-2.57-1.4,5.83,5.83,0,0,1,0-6.42,3.05,3.05,0,0,1,5.13,0h0a5.83,5.83,0,0,1,0,6.42A3.22,3.22,0,0,1,10.51,29Zm0-8.17a2.19,2.19,0,0,0-1.63.93,5.06,5.06,0,0,0,0,5.13,1.77,1.77,0,0,0,3.15,0,5.06,5.06,0,0,0,0-5.13h0A1.82,1.82,0,0,0,10.51,20.83Z" transform="translate(-6.98 -1)" style="fill: #386da6"/>
    <path d="M20.19,29a3.22,3.22,0,0,1-2.57-1.4,5.83,5.83,0,0,1,0-6.42,3.07,3.07,0,0,1,2.57-1.4h0a3.22,3.22,0,0,1,2.57,1.4h0a5.83,5.83,0,0,1,0,6.42A3.07,3.07,0,0,1,20.19,29Zm0-8.17a2.19,2.19,0,0,0-1.63.93,5.06,5.06,0,0,0,0,5.13,1.77,1.77,0,0,0,3.15,0,5.06,5.06,0,0,0,0-5.13h0a1.82,1.82,0,0,0-1.52-.93Z" transform="translate(-6.98 -1)" style="fill: #386da6"/>
    <path d="M15.29,24.1c-.12,0-.23,0-.23-.12l-1.87-1a.64.64,0,0,1-.35-.58l2-20.77A.55.55,0,0,1,15.41,1h0a.53.53,0,0,1,.58.47l2.22,20.88a.64.64,0,0,1-.35.58l-2.22,1A.43.43,0,0,1,15.29,24.1Zm-1.28-2,1.28.7,1.63-.7L15.41,7.53Z" transform="translate(-6.98 -1)" style="fill: #386da6"/>
  </g>
</svg>