<?xml version="1.0" encoding="utf-8"?>
<!-- Generator: Adobe Illustrator 21.1.0, SVG Export Plug-In . SVG Version: 6.00 Build 0)  -->
<svg version="1.1" id="Layer_1" xmlns="http://www.w3.org/2000/svg" xmlns:xlink="http://www.w3.org/1999/xlink" x="0px" y="0px"
	 viewBox="0 0 15 15" style="enable-background:new 0 0 15 15;" xml:space="preserve">
<style type="text/css">
	.st0{fill:#386DA6;}
	.st1{fill:none;stroke:#386DA6;}
	.st2{fill:#D8D8D8;stroke:#386DA6;}
</style>
<g transform="translate(4, 4)">
	<g transform="translate(14.1919, 11.3024)">
		<g transform="rotate(25)">
			<g transform="translate(-14.1919, -11.3024)">
				<g transform="translate(10.5253, 0.826248)">
					<g>
						<path class="st0" d="M-7,0C-8.1,0-9,0.9-9,1.9C-9,4.8-9,6.9-9,8.3c0,0.4,0.5,0.8,0.5,1.4c0,0.2,0.4,0.9,0.2,1.4
							c-0.1,0.4-0.4,0.7-0.8,0.9c0,1,0.8,1.6,1.9,1.6c1.1,0,1.9-0.9,1.9-1.9l0.1-9.7C-5.1,0.9-6,0-7,0L-7,0z M-7-0.7
							c1.5,0,2.7,1.1,2.6,2.6l-0.1,9.7c0,1.4-1.2,2.6-2.7,2.6c-1.3,0-2.3-0.8-2.6-2c0-0.2,0.8-0.4,0.8-0.6c0.5-0.7,0.7-1.3,0.6-1.7
							c-0.1-0.6-1.5-1.6-1.5-1.9c0-1.4,0-3.4,0.1-6.1C-9.7,0.5-8.5-0.7-7-0.7L-7-0.7z"/>
						<path class="st1" d="M-9.8,6.4l4.6,0"/>
					</g>
				</g>
			</g>
		</g>
	</g>
	<g transform="translate(6.66934, 9.92422)">
		<g transform="rotate(-26)">
			<g transform="translate(-6.66934, -9.92422)">
				<g transform="translate(3.16934, 1.92422)">
					<g>
						<path class="st1" d="M0.9-6.8C-0.1-6.8-1-6-1-5l0.1,6.7c0,1,0.9,1.9,1.9,1.9S3,2.9,2.9,1.8L2.9-4.9C2.9-6,2-6.8,0.9-6.8z"/>
						<path class="st2" d="M-0.8-1.6l3.5,0"/>
					</g>
				</g>
			</g>
		</g>
	</g>
</g>
</svg>
