<svg xmlns="http://www.w3.org/2000/svg">
                                        <g id="Layer0_0_FILL" data-name="Layer0 0 FILL">
                                            <path fill="#386da6" class="cls-1" d="M8.3,21.35a.68.68,0,0,0-.35.2L6,24.6l-.6-.65A.49.49,0,0,0,5,23.8a.57.57,0,0,0-.35.1.64.64,0,0,0-.15.35.47.47,0,0,0,.1.35L5.7,25.7a.65.65,0,0,0,.3.2.4.4,0,0,0,.3,0,.29.29,0,0,0,.2-.2L8.8,22.1a.38.38,0,0,0,.1-.35.58.58,0,0,0-.25-.35.47.47,0,0,0-.35,0m-2.1.9a.51.51,0,0,0-.5-.5,3.23,3.23,0,0,0-2.25.85,3,3,0,0,0-1,2.25,2.85,2.85,0,0,0,1,2.2h0A3.07,3.07,0,0,0,5.7,28,3.07,3.07,0,0,0,8,27.05H8a2.85,2.85,0,0,0,.95-2.2.5.5,0,0,0-1,0,1.86,1.86,0,0,1-.65,1.45v.05a2.17,2.17,0,0,1-3.1,0V26.3a1.86,1.86,0,0,1-.65-1.45,2,2,0,0,1,.65-1.5,2.24,2.24,0,0,1,1.55-.6.51.51,0,0,0,.5-.5M28.35,26.2a.48.48,0,0,0-.35-.15H12.7a.5.5,0,0,0,0,1H28a.5.5,0,0,0,.35-.85m0-2.85A.48.48,0,0,0,28,23.2H12.7a.5.5,0,0,0,0,1H28a.5.5,0,0,0,.35-.85m0-9.45a.48.48,0,0,0-.35-.15H12.7a.5.5,0,0,0,0,1H28a.5.5,0,0,0,.35-.85m0,2.85A.48.48,0,0,0,28,16.6H12.7a.5.5,0,0,0,0,1H28a.5.5,0,0,0,.35-.85m-16-9.2a.48.48,0,0,0,.35.15H28a.5.5,0,0,0,0-1H12.7a.5.5,0,0,0-.35.85M6.2,12.8a.51.51,0,0,0-.5-.5,3.23,3.23,0,0,0-2.25.85,3,3,0,0,0-1,2.25,2.85,2.85,0,0,0,1,2.2h0a3.07,3.07,0,0,0,2.25.95A3.07,3.07,0,0,0,8,17.6H8a2.85,2.85,0,0,0,.95-2.2.5.5,0,0,0-1,0,1.86,1.86,0,0,1-.65,1.45v0a2.17,2.17,0,0,1-3.1,0v0A1.86,1.86,0,0,1,3.5,15.4a2,2,0,0,1,.65-1.5,2.24,2.24,0,0,1,1.55-.6.51.51,0,0,0,.5-.5m2.1-.9a.68.68,0,0,0-.35.2l-2,3-.6-.65A.49.49,0,0,0,5,14.35a.57.57,0,0,0-.35.1.64.64,0,0,0-.15.35.47.47,0,0,0,.1.35l1.05,1.1a.65.65,0,0,0,.3.2.4.4,0,0,0,.3-.05.29.29,0,0,0,.2-.2l2.3-3.55a.38.38,0,0,0,.1-.35.58.58,0,0,0-.25-.35.47.47,0,0,0-.35-.05m.6-9.5a.58.58,0,0,0-.25-.35A.47.47,0,0,0,8.3,2,.68.68,0,0,0,8,2.2l-2,3-.6-.65A.49.49,0,0,0,5,4.4a.57.57,0,0,0-.35.1.64.64,0,0,0-.15.35.47.47,0,0,0,.1.35L5.7,6.35a.65.65,0,0,0,.3.2.4.4,0,0,0,.3-.05.29.29,0,0,0,.2-.2L8.8,2.75a.38.38,0,0,0,.1-.35m0,3.1a.5.5,0,0,0-1,0,1.86,1.86,0,0,1-.65,1.45V7a2.12,2.12,0,0,1-1.55.6,2.15,2.15,0,0,1-1.55-.65A1.86,1.86,0,0,1,3.5,5.5,2,2,0,0,1,4.15,4h0A2.12,2.12,0,0,1,5.7,3.35.5.5,0,0,0,6,2.5a.48.48,0,0,0-.35-.15,3.07,3.07,0,0,0-2.25.95V3.25a3,3,0,0,0-1,2.25,2.85,2.85,0,0,0,1,2.2,3.13,3.13,0,0,0,2.25.9A3,3,0,0,0,8,7.7H8A2.85,2.85,0,0,0,8.9,5.5m3.8-1.65a.5.5,0,0,0-.35.85.48.48,0,0,0,.35.15H28A.5.5,0,0,0,28.35,4,.48.48,0,0,0,28,3.85Z" transform="translate(-2.5 -1.99)"/>
                                        </g>
                                    </svg>