 <svg  xmlns="http://www.w3.org/2000/svg">
                                        <path fill="#386da6" d="M26.09,3a2.45,2.45,0,0,0-2.41,2.5,2.52,2.52,0,0,0,1,2l-3.11,6.85A2.32,2.32,0,0,0,20.31,14a2.39,2.39,0,0,0-2.13,1.37l-5.11-2.6a2.55,2.55,0,0,0,0-.27,2.41,2.41,0,1,0-4.81,0,2.55,2.55,0,0,0,.39,1.36L5.21,20a2.29,2.29,0,0,0-.3,0,2.5,2.5,0,0,0,0,5,2.46,2.46,0,0,0,2.41-2.5,2.52,2.52,0,0,0-1.07-2.08l3.24-5.77a2.32,2.32,0,0,0,1.21.35,2.38,2.38,0,0,0,2-1.16l5.2,2.64v0a2.41,2.41,0,1,0,4.81,0,2.55,2.55,0,0,0-.33-1.25L25.7,8a2.31,2.31,0,0,0,.39,0A2.46,2.46,0,0,0,28.5,5.5,2.45,2.45,0,0,0,26.09,3Z" transform="translate(-2.5 -3)"/>
                                    </svg>